# xmcd
#
# Track frame offsets:
# 150
# 15612
# 44216
# 67608
# 79137
# 101825
# 134530
# 150422
# 166624
# 190628
# 209658
# 242995
# 272097
# 279417
# 299104
# 314858
# 333575
#
# Disc length: 4754 seconds
#
# Revision: 0
# Processed by: cddbd v1.5.1PL0 Copyright (c) Steve Scherf et al.
# Submitted via: Audion 3.0.2 (http://www.panic.com/audion/)
#
DISCID=06129011
DTITLE=the Choir - best of the Choir
DYEAR=1900
DGENRE=
TTITLE0=Salamander
TTITLE1=Weather Girl
TTITLE2=Children Of Time
TTITLE3=To Cover You
TTITLE4=A Sentimental Song
TTITLE5=Sad Face
TTITLE6=Happy Fool
TTITLE7=Wide-Eyed Wonder
TTITLE8=Cain
TTITLE9=When She Sees Me
TTITLE10=Circle Slide
TTITLE11=The Chicken
TTITLE12=Everybody In The Band
TTITLE13=Gripped
TTITLE14=Look Out
TTITLE15=Consider
TTITLE16=So Far Away
EXTD=
EXTT0=
EXTT1=
EXTT2=
EXTT3=
EXTT4=
EXTT5=
EXTT6=
EXTT7=
EXTT8=
EXTT9=
EXTT10=
EXTT11=
EXTT12=
EXTT13=
EXTT14=
EXTT15=
EXTT16=
PLAYORDER=
